<?xml version="1.0" encoding="UTF-8" standalone="no"?>
<svg inkscape:version="1.1.1 (3bf5ae0d25, 2021-09-20)" id="svg890" version="1.1" viewBox="0 0 77.083298 101.86502" height="101.86502" width="77.083298" sodipodi:docname="pine.svg" xmlns:inkscape="http://www.inkscape.org/namespaces/inkscape" xmlns:sodipodi="http://sodipodi.sourceforge.net/DTD/sodipodi-0.dtd" xmlns:xlink="http://www.w3.org/1999/xlink" xmlns="http://www.w3.org/2000/svg" xmlns:svg="http://www.w3.org/2000/svg" xmlns:rdf="http://www.w3.org/1999/02/22-rdf-syntax-ns#" xmlns:cc="http://creativecommons.org/ns#" xmlns:dc="http://purl.org/dc/elements/1.1/">
  <defs id="defs884">
    <linearGradient id="linearGradient890" inkscape:collect="always">
      <stop id="stop886" offset="0" style="stop-color:#fc2da5;stop-opacity:0.60000002" />
      <stop id="stop888" offset="1" style="stop-color:#d82dfc;stop-opacity:0" />
    </linearGradient>
    <linearGradient id="linearGradient870" inkscape:collect="always">
      <stop id="stop866" offset="0" style="stop-color:#2dcbfc;stop-opacity:0.21886793" />
      <stop id="stop868" offset="1" style="stop-color:#2dcbfc;stop-opacity:1" />
    </linearGradient>
    <linearGradient y2="4.8230834" x2="48.895298" y1="91.061447" x1="37.028263" gradientUnits="userSpaceOnUse" id="linearGradient876" xlink:href="#linearGradient870" inkscape:collect="always" />
    <linearGradient gradientUnits="userSpaceOnUse" y2="33.250683" x2="41.250904" y1="135.97229" x1="33.922729" id="linearGradient892" xlink:href="#linearGradient890" inkscape:collect="always" />
    <mask id="mask910" maskUnits="userSpaceOnUse">
      <path style="font-variation-settings:normal;display:inline;opacity:1;vector-effect:none;fill:#00834a;fill-opacity:1;stroke:none;stroke-width:1;stroke-linecap:butt;stroke-linejoin:miter;stroke-miterlimit:4;stroke-dasharray:none;stroke-dashoffset:0;stroke-opacity:1;stop-color:#000000;stop-opacity:1" d="M 37.796112,27.719023 C 33.239407,37.043368 18.266914,77.16827 18.245009,77.179223 25.76965,82.156592 50.469244,81.075741 57.680645,76.923506 50.927168,62.844618 43.520529,41.076588 37.796112,27.719023 Z" id="path912" sodipodi:nodetypes="cccc" inkscape:connector-curvature="0" />
    </mask>
    <mask id="mask924" maskUnits="userSpaceOnUse">
      <path inkscape:connector-curvature="0" sodipodi:nodetypes="cccc" id="path926" d="M 39.32314,12.417892 C 33.574913,25.062328 24.217633,43.809905 20.617601,52.050458 29.492586,54.506642 45.529723,54.584264 54.360572,52.734503 48.621644,39.96158 42.498894,25.963574 39.32314,12.417892 Z" style="font-variation-settings:normal;opacity:1;vector-effect:none;fill:#00834a;fill-opacity:1;stroke:none;stroke-width:1;stroke-linecap:butt;stroke-linejoin:miter;stroke-miterlimit:4;stroke-dasharray:none;stroke-dashoffset:0;stroke-opacity:1;stop-color:#000000;stop-opacity:1" />
    </mask>
  </defs>
  <sodipodi:namedview inkscape:pagecheckerboard="false" inkscape:showpageshadow="false" units="px" showgrid="false" inkscape:document-rotation="0" inkscape:current-layer="g1491" inkscape:document-units="px" inkscape:cy="38.766892" inkscape:cx="16.638514" inkscape:zoom="5.92" inkscape:pageshadow="2" inkscape:pageopacity="0.0" borderopacity="1" bordercolor="#cfcfcf" pagecolor="#ffffff" id="base" inkscape:snap-global="false" fit-margin-top="0" fit-margin-left="0" fit-margin-right="0" fit-margin-bottom="0" />
  <metadata id="metadata887">
    <rdf:RDF>
      <cc:Work rdf:about="">
        <dc:format>image/svg+xml</dc:format>
        <dc:type rdf:resource="http://purl.org/dc/dcmitype/StillImage" />
      </cc:Work>
    </rdf:RDF>
  </metadata>
  <g id="layer1" inkscape:groupmode="layer" inkscape:label="Слой 1" transform="translate(-7.13503e-4)">
    <g id="g1491" style="display:inline">
      <path style="font-variation-settings:normal;display:none;opacity:1;vector-effect:none;fill:#dff7f6;fill-opacity:1;stroke:none;stroke-width:0.999999;stroke-linecap:butt;stroke-linejoin:miter;stroke-miterlimit:4;stroke-dasharray:none;stroke-dashoffset:0;stroke-opacity:1;stop-color:#000000;stop-opacity:1" d="M 71.398405,42.412166 C 96.649247,2.84508 7.1854615,-19.332796 14.780623,30.357052 -1.4512929,28.59881 -9.4183146,85.950847 20.667871,88.567639 40.662825,86.397842 34.928683,89.721088 44.939939,91.106957 83.901534,96.500452 80.793762,47.080923 71.398405,42.412166 Z" id="path1411" sodipodi:nodetypes="cccsc" inkscape:connector-curvature="0" />
      <path inkscape:connector-curvature="0" d="M 31.888672,2.4472656 A 37.55092,23.247619 13.100855 0 0 3.6367188,17.810547 37.55092,23.247619 13.100855 0 0 12.630859,38.546875 30.322918,38.353612 82.152599 0 0 0.01367188,62.585938 30.322918,38.353612 82.152599 0 0 39.214844,90.208984 30.322918,38.353612 82.152599 0 0 76.425781,57.097656 30.322918,38.353612 82.152599 0 0 71.65625,43.394531 37.55092,23.247619 13.100855 0 0 76.628906,35.462891 37.55092,23.247619 13.100855 0 0 45.912109,4.1132812 37.55092,23.247619 13.100855 0 0 31.888672,2.4472656 Z" style="font-variation-settings:normal;display:inline;opacity:1;vector-effect:none;fill:url(#linearGradient876);fill-opacity:1;fill-rule:evenodd;stroke:none;stroke-width:1;stroke-linecap:butt;stroke-linejoin:miter;stroke-miterlimit:4;stroke-dasharray:none;stroke-dashoffset:0;stroke-opacity:1;stop-color:#000000;stop-opacity:1" id="ellipse858" />
      <path id="path884" style="font-variation-settings:normal;display:inline;opacity:1;vector-effect:none;fill:url(#linearGradient892);fill-opacity:1;fill-rule:evenodd;stroke:none;stroke-width:1;stroke-linecap:butt;stroke-linejoin:miter;stroke-miterlimit:4;stroke-dasharray:none;stroke-dashoffset:0;stroke-opacity:1;stop-color:#000000;stop-opacity:1" d="M 31.888672,2.4472656 A 37.55092,23.247619 13.100855 0 0 3.6367188,17.810547 37.55092,23.247619 13.100855 0 0 12.630859,38.546875 30.322918,38.353612 82.152599 0 0 0.01367188,62.585938 30.322918,38.353612 82.152599 0 0 39.214844,90.208984 30.322918,38.353612 82.152599 0 0 76.425781,57.097656 30.322918,38.353612 82.152599 0 0 71.65625,43.394531 37.55092,23.247619 13.100855 0 0 76.628906,35.462891 37.55092,23.247619 13.100855 0 0 45.912109,4.1132812 37.55092,23.247619 13.100855 0 0 31.888672,2.4472656 Z" inkscape:connector-curvature="0" />
      <path inkscape:connector-curvature="0" sodipodi:nodetypes="cccscc" id="path860" d="M 40.218745,64.274774 C 43.011911,55.316654 31.500881,49.980933 28.268597,61.474836 22.609833,53.515762 12.596716,61.081247 14.94207,65.025675 6.0113664,64.247552 4.2248423,72.447477 14.295757,73.090153 c 15.129557,0.965493 22.065661,0.317988 29.946079,-0.196576 18.629311,-1.32644 1.872327,-10.833369 -4.023091,-8.618803 z" style="font-variation-settings:normal;display:inline;opacity:1;vector-effect:none;fill:#ffffff;fill-opacity:1;stroke:none;stroke-width:0.999998;stroke-linecap:butt;stroke-linejoin:miter;stroke-miterlimit:4;stroke-dasharray:none;stroke-dashoffset:0;stroke-opacity:1;stop-color:#000000;stop-opacity:1" />
      <path style="font-variation-settings:normal;display:inline;opacity:1;vector-effect:none;fill:#ffffff;fill-opacity:1;stroke:none;stroke-width:0.999998;stroke-linecap:butt;stroke-linejoin:miter;stroke-miterlimit:4;stroke-dasharray:none;stroke-dashoffset:0;stroke-opacity:1;stop-color:#000000;stop-opacity:1" d="M 52.18135,22.951561 C 49.05637,11.445189 33.458381,22.603505 39.013194,27.223609 34.445399,28.486577 25.129204,38.240355 37.653734,38.408114 54.668093,38.636011 54.581859,38.682629 62.462277,38.168065 77.96271,38.64888 69.492581,26.117667 61.526806,28.172324 64.202924,23.80806 57.440661,14.160361 52.18135,22.951561 Z" id="path1401" sodipodi:nodetypes="ccsccc" inkscape:connector-curvature="0" />
      <ellipse style="font-variation-settings:normal;opacity:1;vector-effect:none;fill:#ffca5b;fill-opacity:1;fill-rule:evenodd;stroke:none;stroke-width:0.999996;stroke-linecap:butt;stroke-linejoin:miter;stroke-miterlimit:4;stroke-dasharray:none;stroke-dashoffset:0;stroke-opacity:1;stop-color:#000000;stop-opacity:1" id="path862" cx="38.2015" cy="93.265076" rx="24.247074" ry="8.599947" />
      <ellipse ry="4.0391359" rx="13.455719" cy="89.664742" cx="38.003593" id="ellipse914" style="font-variation-settings:normal;opacity:1;vector-effect:none;fill:#e4ac38;fill-opacity:0.822642;fill-rule:evenodd;stroke:none;stroke-width:1;stroke-linecap:butt;stroke-linejoin:miter;stroke-miterlimit:4;stroke-dasharray:none;stroke-dashoffset:0;stroke-opacity:1;stop-color:#000000;stop-opacity:1" />
      <path style="font-variation-settings:normal;display:none;opacity:1;vector-effect:none;fill:#f6f1d5;fill-opacity:1;stroke:none;stroke-width:0.999998;stroke-linecap:butt;stroke-linejoin:miter;stroke-miterlimit:4;stroke-dasharray:none;stroke-dashoffset:0;stroke-opacity:1;stop-color:#000000;stop-opacity:1" d="M 66.794248,81.30608 C 48.995543,73.434998 -9.594991,75.384744 10.615903,93.042425 27.908793,108.15073 100.19264,96.075782 66.794248,81.30608 Z" id="path1399" sodipodi:nodetypes="sss" inkscape:connector-curvature="0" />
      <path style="font-variation-settings:normal;display:inline;opacity:1;vector-effect:none;fill:#643619;fill-opacity:1;stroke:none;stroke-width:1;stroke-linecap:butt;stroke-linejoin:miter;stroke-miterlimit:4;stroke-dasharray:none;stroke-dashoffset:0;stroke-opacity:1;stop-color:#000000;stop-opacity:1" d="m 34.361684,63.451292 c -0.315893,8.445851 -0.451389,17.870579 -0.06218,25.398421 0.553342,1.227747 7.047058,1.099649 7.695832,-0.174824 -0.543232,-9.574575 -0.998118,-18.228011 -1.000878,-25.140132 -2.062567,-0.0025 -4.252931,6.63e-4 -6.632775,-0.08346 z" id="path1409" sodipodi:nodetypes="cccccc" inkscape:connector-curvature="0" />
      <path inkscape:connector-curvature="0" sodipodi:nodetypes="cccc" id="path908" d="M 37.796112,27.719023 C 33.239407,37.043368 18.266914,77.16827 18.245009,77.179223 25.76965,82.156592 50.469244,81.075741 57.680645,76.923506 50.927168,62.844618 43.520529,41.076588 37.796112,27.719023 Z" style="font-variation-settings:normal;display:inline;opacity:1;vector-effect:none;fill:#00834a;fill-opacity:1;stroke:none;stroke-width:1;stroke-linecap:butt;stroke-linejoin:miter;stroke-miterlimit:4;stroke-dasharray:none;stroke-dashoffset:0;stroke-opacity:1;stop-color:#000000;stop-opacity:1" />
      <path sodipodi:nodetypes="cssccc" mask="url(#mask910)" inkscape:connector-curvature="0" id="path894" d="M 53.39134,65.842469 C 51.311322,59.902781 43.667203,55.558032 37.566806,55.805681 30.960073,56.073885 24.206088,60.298583 21.499869,66.559131 18.952076,72.453179 23.649855,49.47868 23.649855,49.47868 l 28.069273,0.95555 z" style="font-variation-settings:normal;opacity:1;vector-effect:none;fill:#000000;fill-opacity:0.4;stroke:none;stroke-width:1;stroke-linecap:butt;stroke-linejoin:miter;stroke-miterlimit:4;stroke-dasharray:none;stroke-dashoffset:0;stroke-opacity:1;stop-color:#000000;stop-opacity:1" />
      <path style="font-variation-settings:normal;opacity:1;vector-effect:none;fill:#00834a;fill-opacity:1;stroke:none;stroke-width:1;stroke-linecap:butt;stroke-linejoin:miter;stroke-miterlimit:4;stroke-dasharray:none;stroke-dashoffset:0;stroke-opacity:1;stop-color:#000000;stop-opacity:1" d="M 39.32314,12.417892 C 33.574913,25.062328 24.217633,43.809905 20.617601,52.050458 29.492586,54.506642 45.529723,54.584264 54.360572,52.734503 48.621644,39.96158 42.498894,25.963574 39.32314,12.417892 Z" id="path1405" sodipodi:nodetypes="cccc" inkscape:connector-curvature="0" />
      <path style="font-variation-settings:normal;opacity:1;vector-effect:none;fill:#000000;fill-opacity:0.4;stroke:none;stroke-width:0.999996;stroke-linecap:butt;stroke-linejoin:miter;stroke-miterlimit:4;stroke-dasharray:none;stroke-dashoffset:0;stroke-opacity:1;stop-color:#000000;stop-opacity:1" d="m 48.661614,40.328812 c -1.466604,-4.772222 -6.901898,-7.7139 -11.207569,-7.665603 -4.151598,0.04657 -9.708559,3.211387 -11.616691,8.241402 0.737353,-6.075257 1.853775,-13.723229 1.853775,-13.723229 l 19.79142,0.767732 z" id="path916" inkscape:connector-curvature="0" mask="url(#mask924)" sodipodi:nodetypes="cscccc" />
      <path style="font-variation-settings:normal;opacity:1;vector-effect:none;fill:#00834a;fill-opacity:1;stroke:none;stroke-width:1;stroke-linecap:butt;stroke-linejoin:miter;stroke-miterlimit:4;stroke-dasharray:none;stroke-dashoffset:0;stroke-opacity:1;stop-color:#000000;stop-opacity:1" d="M 39.981064,0 C 35.20781,10.030501 28.610563,23.873282 25.856801,29.602332 33.776235,31.580741 42.003311,31.97287 50.665192,31.230966 47.351858,23.065215 41.721153,8.1624292 39.981064,0 Z" id="path1403" sodipodi:nodetypes="cccc" inkscape:connector-curvature="0" />
    </g>
    <g id="g1482" style="display:none;opacity:1;stroke-width:0.824423" transform="matrix(1.2134147,0,0,1.2125258,-22.33879,-1.4628422)">
      <path style="font-variation-settings:normal;display:inline;opacity:1;vector-effect:none;fill:none;fill-opacity:1;stroke:#3485bf;stroke-width:0.659538;stroke-linecap:round;stroke-linejoin:round;stroke-miterlimit:4;stroke-dasharray:none;stroke-dashoffset:0;stroke-opacity:1;stop-color:#000000;stop-opacity:1" d="m 81.095476,39.527023 -0.795642,1.433867 1.884418,0.487811 -0.865436,1.507778" id="path1413" sodipodi:nodetypes="cccc" inkscape:connector-curvature="0" />
      <path style="font-variation-settings:normal;display:inline;opacity:1;vector-effect:none;fill:#3485bf;fill-opacity:1;stroke:none;stroke-width:0.824423;stroke-linecap:butt;stroke-linejoin:miter;stroke-miterlimit:4;stroke-dasharray:none;stroke-dashoffset:0;stroke-opacity:1;stop-color:#000000;stop-opacity:1" d="m 75.22435,51.300948 c 0.07331,-1.473365 0.793006,-1.601197 0.946337,-0.07836 1.695613,0.05563 1.771376,0.731211 0.08502,0.921589 -0.06751,1.829109 -0.759226,1.565119 -0.964511,0.09664 -1.632893,0.01602 -1.665637,-0.670254 -0.06685,-0.939864 z" id="path1417" sodipodi:nodetypes="ccccc" inkscape:connector-curvature="0" />
      <path style="font-variation-settings:normal;display:inline;opacity:1;vector-effect:none;fill:#3485bf;fill-opacity:1;stroke:none;stroke-width:0.824423;stroke-linecap:butt;stroke-linejoin:miter;stroke-miterlimit:4;stroke-dasharray:none;stroke-dashoffset:0;stroke-opacity:1;stop-color:#000000;stop-opacity:1" d="m 67.135319,37.907238 c 0.143036,-1.322454 0.797572,-1.39989 0.855966,-0.02105 1.52344,0.138745 1.556313,0.750846 0.02834,0.834037 -0.156418,1.64299 -0.76528,1.369182 -0.873283,0.03655 -1.470729,-0.07096 -1.464317,-0.690443 -0.01103,-0.849539 z" id="path1419" sodipodi:nodetypes="ccccc" inkscape:connector-curvature="0" />
      <path style="font-variation-settings:normal;display:inline;opacity:1;vector-effect:none;fill:#3485bf;fill-opacity:1;stroke:none;stroke-width:0.824423;stroke-linecap:butt;stroke-linejoin:miter;stroke-miterlimit:4;stroke-dasharray:none;stroke-dashoffset:0;stroke-opacity:1;stop-color:#000000;stop-opacity:1" d="m 38.481426,11.896653 c 0.175269,-1.627721 0.980809,-1.723412 1.053486,-0.02641 1.875088,0.169871 1.915906,0.923208 0.03537,1.026493 -0.191551,2.022236 -0.941081,1.685598 -1.07479,0.0455 -1.810171,-0.08647 -1.802644,-0.84892 -0.01408,-1.045581 z" id="path1421" sodipodi:nodetypes="ccccc" inkscape:connector-curvature="0" />
      <path style="font-variation-settings:normal;display:inline;opacity:1;vector-effect:none;fill:#3485bf;fill-opacity:1;stroke:none;stroke-width:0.824423;stroke-linecap:butt;stroke-linejoin:miter;stroke-miterlimit:4;stroke-dasharray:none;stroke-dashoffset:0;stroke-opacity:1;stop-color:#000000;stop-opacity:1" d="m 28.424609,37.487175 c 0.218829,-1.460462 1.004376,-1.552083 1.024397,-0.03131 1.816846,0.138695 1.834044,0.813737 0.0038,0.919956 -0.246412,1.814248 -0.964648,1.517896 -1.045666,0.04857 -1.756256,-0.0644 -1.726209,-0.747965 0.01749,-0.937224 z" id="path1423" sodipodi:nodetypes="ccccc" inkscape:connector-curvature="0" />
      <path style="font-variation-settings:normal;display:inline;opacity:1;vector-effect:none;fill:none;fill-opacity:1;stroke:#3485bf;stroke-width:0.659538;stroke-linecap:round;stroke-linejoin:round;stroke-miterlimit:4;stroke-dasharray:none;stroke-dashoffset:0;stroke-opacity:1;stop-color:#000000;stop-opacity:1" d="M 27.384164,21.260304 27.08233,22.872109 25.319882,22.045813 25.024659,23.75906" id="path1427" sodipodi:nodetypes="cccc" inkscape:connector-curvature="0" />
      <path style="font-variation-settings:normal;display:inline;opacity:1;vector-effect:none;fill:#000000;fill-opacity:1;stroke:#3485bf;stroke-width:0.494655;stroke-linecap:round;stroke-linejoin:round;stroke-miterlimit:4;stroke-dasharray:none;stroke-dashoffset:0;stroke-opacity:1;stop-color:#000000;stop-opacity:1" d="m 58.302373,8.7837837 c 0.52847,0 1.849645,0 1.849645,0" id="path1431" inkscape:connector-curvature="0" />
      <path style="font-variation-settings:normal;display:inline;opacity:1;vector-effect:none;fill:#000000;fill-opacity:1;stroke:#3485bf;stroke-width:0.494655;stroke-linecap:round;stroke-linejoin:round;stroke-miterlimit:4;stroke-dasharray:none;stroke-dashoffset:0;stroke-opacity:1;stop-color:#000000;stop-opacity:1" d="m 59.54815,9.670608 c 0.52847,0 1.849645,0 1.849645,0" id="path1433" inkscape:connector-curvature="0" />
      <path style="font-variation-settings:normal;display:inline;opacity:1;vector-effect:none;fill:#000000;fill-opacity:1;stroke:#3485bf;stroke-width:0.494655;stroke-linecap:round;stroke-linejoin:round;stroke-miterlimit:4;stroke-dasharray:none;stroke-dashoffset:0;stroke-opacity:1;stop-color:#000000;stop-opacity:1" d="m 60.983961,10.599662 c 0.52847,0 1.849645,0 1.849645,0" id="path1435" inkscape:connector-curvature="0" />
      <path style="font-variation-settings:normal;display:inline;opacity:1;vector-effect:none;fill:none;fill-opacity:1;stroke:#875f2a;stroke-width:0.74198;stroke-linecap:round;stroke-linejoin:round;stroke-miterlimit:4;stroke-dasharray:none;stroke-dashoffset:0;stroke-opacity:1;stop-color:#000000;stop-opacity:1" d="m 67.274006,74.223641 5.565861,-2.576012" id="path1441" sodipodi:nodetypes="cc" inkscape:connector-curvature="0" />
      <path style="font-variation-settings:normal;display:inline;opacity:1;vector-effect:none;fill:none;fill-opacity:1;stroke:#875f2a;stroke-width:0.824423;stroke-linecap:round;stroke-linejoin:round;stroke-miterlimit:4;stroke-dasharray:none;stroke-dashoffset:0;stroke-opacity:1;stop-color:#000000;stop-opacity:1" d="m 59.816307,76.899635 c 0.154834,0 0.541921,0 0.541921,0" id="path1443" inkscape:connector-curvature="0" />
      <path style="font-variation-settings:normal;display:inline;opacity:1;vector-effect:none;fill:none;fill-opacity:1;stroke:#875f2a;stroke-width:0.824423;stroke-linecap:round;stroke-linejoin:round;stroke-miterlimit:4;stroke-dasharray:none;stroke-dashoffset:0;stroke-opacity:1;stop-color:#000000;stop-opacity:1" d="m 60.413525,78.392682 c 0.154834,0 0.541921,0 0.541921,0" id="path1445" inkscape:connector-curvature="0" />
      <path style="font-variation-settings:normal;display:inline;opacity:1;vector-effect:none;fill:none;fill-opacity:1;stroke:#875f2a;stroke-width:0.824423;stroke-linecap:round;stroke-linejoin:round;stroke-miterlimit:4;stroke-dasharray:none;stroke-dashoffset:0;stroke-opacity:1;stop-color:#000000;stop-opacity:1" d="m 57.546876,77.914907 c 0.154834,0 0.541921,0 0.541921,0" id="path1447" inkscape:connector-curvature="0" />
      <path style="font-variation-settings:normal;display:inline;opacity:1;vector-effect:none;fill:none;fill-opacity:1;stroke:#875f2a;stroke-width:0.824423;stroke-linecap:round;stroke-linejoin:round;stroke-miterlimit:4;stroke-dasharray:none;stroke-dashoffset:0;stroke-opacity:1;stop-color:#000000;stop-opacity:1" d="m 32.671295,73.364042 c -0.154834,0 -0.541921,0 -0.541921,0" id="path1449" inkscape:connector-curvature="0" />
      <path style="font-variation-settings:normal;display:inline;opacity:1;vector-effect:none;fill:none;fill-opacity:1;stroke:#875f2a;stroke-width:0.824423;stroke-linecap:round;stroke-linejoin:round;stroke-miterlimit:4;stroke-dasharray:none;stroke-dashoffset:0;stroke-opacity:1;stop-color:#000000;stop-opacity:1" d="m 36.015719,75.275141 c -0.154834,0 -0.541921,0 -0.541921,0" id="path1451" inkscape:connector-curvature="0" />
      <path style="font-variation-settings:normal;display:inline;opacity:1;vector-effect:none;fill:none;fill-opacity:1;stroke:#875f2a;stroke-width:0.824423;stroke-linecap:round;stroke-linejoin:round;stroke-miterlimit:4;stroke-dasharray:none;stroke-dashoffset:0;stroke-opacity:1;stop-color:#000000;stop-opacity:1" d="m 40.255971,73.841816 c -0.154834,0 -0.541921,0 -0.541921,0" id="path1453" inkscape:connector-curvature="0" />
      <path style="font-variation-settings:normal;display:inline;opacity:1;vector-effect:none;fill:none;fill-opacity:1;stroke:#875f2a;stroke-width:0.74198;stroke-linecap:round;stroke-linejoin:round;stroke-miterlimit:4;stroke-dasharray:none;stroke-dashoffset:0;stroke-opacity:1;stop-color:#000000;stop-opacity:1" d="m 69.934479,72.745601 0.202685,-1.435809" id="path1463" sodipodi:nodetypes="cc" inkscape:connector-curvature="0" />
    </g>
  </g>
</svg>
